<mxfile host="app.diagrams.net" modified="2021-09-20T07:23:42.349Z" agent="5.0 (Windows NT 10.0; Win64; x64) AppleWebKit/537.36 (KHTML, like Gecko) Chrome/93.0.4577.82 Safari/537.36" etag="6oy5wMwh2ee-QbtA82tR" version="15.2.9" type="github">
  <diagram id="-hn5NZ6zdEqaLnMEhqdJ" name="Page-1">
    <mxGraphModel dx="1422" dy="794" grid="1" gridSize="10" guides="1" tooltips="1" connect="1" arrows="1" fold="1" page="1" pageScale="1" pageWidth="827" pageHeight="1169" math="0" shadow="0">
      <root>
        <mxCell id="0" />
        <mxCell id="1" parent="0" />
        <mxCell id="6i9DwoqVIKGJww_wzSM7-1" value="Кофейня" style="rounded=0;whiteSpace=wrap;html=1;" vertex="1" parent="1">
          <mxGeometry x="160" y="20" width="520" height="60" as="geometry" />
        </mxCell>
        <mxCell id="6i9DwoqVIKGJww_wzSM7-2" value="Мобильное приложение" style="rounded=1;whiteSpace=wrap;html=1;" vertex="1" parent="1">
          <mxGeometry x="40" y="120" width="120" height="60" as="geometry" />
        </mxCell>
        <mxCell id="6i9DwoqVIKGJww_wzSM7-3" value="Веб" style="rounded=1;whiteSpace=wrap;html=1;" vertex="1" parent="1">
          <mxGeometry x="680" y="110" width="120" height="60" as="geometry" />
        </mxCell>
        <mxCell id="6i9DwoqVIKGJww_wzSM7-5" value="IOS" style="rounded=1;whiteSpace=wrap;html=1;fillColor=#fff2cc;strokeColor=#d6b656;" vertex="1" parent="1">
          <mxGeometry x="200" y="120" width="120" height="60" as="geometry" />
        </mxCell>
        <mxCell id="6i9DwoqVIKGJww_wzSM7-6" value="Лендинг" style="rounded=1;whiteSpace=wrap;html=1;fillColor=#dae8fc;strokeColor=#6c8ebf;" vertex="1" parent="1">
          <mxGeometry x="520" y="110" width="120" height="60" as="geometry" />
        </mxCell>
        <mxCell id="6i9DwoqVIKGJww_wzSM7-7" value="Интернет Магазин" style="rounded=1;whiteSpace=wrap;html=1;fillColor=#d5e8d4;strokeColor=#82b366;" vertex="1" parent="1">
          <mxGeometry x="680" y="200" width="120" height="60" as="geometry" />
        </mxCell>
        <mxCell id="6i9DwoqVIKGJww_wzSM7-8" value="" style="endArrow=classic;html=1;exitX=1;exitY=0.5;exitDx=0;exitDy=0;entryX=0;entryY=0.5;entryDx=0;entryDy=0;" edge="1" parent="1" source="6i9DwoqVIKGJww_wzSM7-2" target="6i9DwoqVIKGJww_wzSM7-5">
          <mxGeometry width="50" height="50" relative="1" as="geometry">
            <mxPoint x="390" y="230" as="sourcePoint" />
            <mxPoint x="440" y="180" as="targetPoint" />
          </mxGeometry>
        </mxCell>
        <mxCell id="6i9DwoqVIKGJww_wzSM7-9" value="" style="endArrow=classic;html=1;exitX=0;exitY=0.5;exitDx=0;exitDy=0;" edge="1" parent="1" source="6i9DwoqVIKGJww_wzSM7-3">
          <mxGeometry width="50" height="50" relative="1" as="geometry">
            <mxPoint x="170" y="160" as="sourcePoint" />
            <mxPoint x="640" y="140" as="targetPoint" />
          </mxGeometry>
        </mxCell>
        <mxCell id="6i9DwoqVIKGJww_wzSM7-10" value="" style="endArrow=classic;html=1;exitX=0.5;exitY=1;exitDx=0;exitDy=0;entryX=0.5;entryY=0;entryDx=0;entryDy=0;" edge="1" parent="1" source="6i9DwoqVIKGJww_wzSM7-3" target="6i9DwoqVIKGJww_wzSM7-7">
          <mxGeometry width="50" height="50" relative="1" as="geometry">
            <mxPoint x="690" y="150" as="sourcePoint" />
            <mxPoint x="650" y="150" as="targetPoint" />
          </mxGeometry>
        </mxCell>
        <mxCell id="6i9DwoqVIKGJww_wzSM7-11" value="" style="endArrow=none;html=1;strokeWidth=2;exitX=0;exitY=1;exitDx=0;exitDy=0;entryX=1;entryY=1;entryDx=0;entryDy=0;" edge="1" parent="1" source="6i9DwoqVIKGJww_wzSM7-18" target="6i9DwoqVIKGJww_wzSM7-26">
          <mxGeometry width="50" height="50" relative="1" as="geometry">
            <mxPoint y="320" as="sourcePoint" />
            <mxPoint x="820" y="320" as="targetPoint" />
          </mxGeometry>
        </mxCell>
        <mxCell id="6i9DwoqVIKGJww_wzSM7-12" value="" style="endArrow=none;html=1;strokeWidth=2;" edge="1" parent="1">
          <mxGeometry width="50" height="50" relative="1" as="geometry">
            <mxPoint x="80" y="280" as="sourcePoint" />
            <mxPoint x="80" y="560" as="targetPoint" />
          </mxGeometry>
        </mxCell>
        <mxCell id="6i9DwoqVIKGJww_wzSM7-13" value="" style="endArrow=none;html=1;strokeWidth=2;" edge="1" parent="1">
          <mxGeometry width="50" height="50" relative="1" as="geometry">
            <mxPoint x="200" y="280" as="sourcePoint" />
            <mxPoint x="200" y="560" as="targetPoint" />
          </mxGeometry>
        </mxCell>
        <mxCell id="6i9DwoqVIKGJww_wzSM7-14" value="" style="endArrow=none;html=1;strokeWidth=2;" edge="1" parent="1">
          <mxGeometry width="50" height="50" relative="1" as="geometry">
            <mxPoint x="320" y="280" as="sourcePoint" />
            <mxPoint x="320" y="560" as="targetPoint" />
          </mxGeometry>
        </mxCell>
        <mxCell id="6i9DwoqVIKGJww_wzSM7-15" value="" style="endArrow=none;html=1;strokeWidth=2;" edge="1" parent="1">
          <mxGeometry width="50" height="50" relative="1" as="geometry">
            <mxPoint x="440" y="280" as="sourcePoint" />
            <mxPoint x="440" y="560" as="targetPoint" />
          </mxGeometry>
        </mxCell>
        <mxCell id="6i9DwoqVIKGJww_wzSM7-16" value="" style="endArrow=none;html=1;strokeWidth=2;" edge="1" parent="1">
          <mxGeometry width="50" height="50" relative="1" as="geometry">
            <mxPoint x="560" y="280" as="sourcePoint" />
            <mxPoint x="560" y="560" as="targetPoint" />
          </mxGeometry>
        </mxCell>
        <mxCell id="6i9DwoqVIKGJww_wzSM7-17" value="" style="endArrow=none;html=1;strokeWidth=2;" edge="1" parent="1">
          <mxGeometry width="50" height="50" relative="1" as="geometry">
            <mxPoint x="679" y="280" as="sourcePoint" />
            <mxPoint x="679" y="560" as="targetPoint" />
          </mxGeometry>
        </mxCell>
        <mxCell id="6i9DwoqVIKGJww_wzSM7-18" value="Месяц" style="text;html=1;strokeColor=none;fillColor=none;align=center;verticalAlign=middle;whiteSpace=wrap;rounded=0;fontSize=16;fontStyle=1" vertex="1" parent="1">
          <mxGeometry x="10" y="280" width="70" height="40" as="geometry" />
        </mxCell>
        <mxCell id="6i9DwoqVIKGJww_wzSM7-20" value="09/2021" style="text;html=1;strokeColor=none;fillColor=none;align=center;verticalAlign=middle;whiteSpace=wrap;rounded=0;fontSize=16;fontStyle=1" vertex="1" parent="1">
          <mxGeometry x="80" y="280" width="120" height="40" as="geometry" />
        </mxCell>
        <mxCell id="6i9DwoqVIKGJww_wzSM7-22" value="11/2021" style="text;html=1;strokeColor=none;fillColor=none;align=center;verticalAlign=middle;whiteSpace=wrap;rounded=0;fontSize=16;fontStyle=1" vertex="1" parent="1">
          <mxGeometry x="320" y="280" width="120" height="40" as="geometry" />
        </mxCell>
        <mxCell id="6i9DwoqVIKGJww_wzSM7-23" value="12/2021" style="text;html=1;strokeColor=none;fillColor=none;align=center;verticalAlign=middle;whiteSpace=wrap;rounded=0;fontSize=16;fontStyle=1" vertex="1" parent="1">
          <mxGeometry x="440" y="280" width="120" height="40" as="geometry" />
        </mxCell>
        <mxCell id="6i9DwoqVIKGJww_wzSM7-24" value="10/2021" style="text;html=1;strokeColor=none;fillColor=none;align=center;verticalAlign=middle;whiteSpace=wrap;rounded=0;fontSize=16;fontStyle=1" vertex="1" parent="1">
          <mxGeometry x="200" y="280" width="120" height="40" as="geometry" />
        </mxCell>
        <mxCell id="6i9DwoqVIKGJww_wzSM7-25" value="01/2022" style="text;html=1;strokeColor=none;fillColor=none;align=center;verticalAlign=middle;whiteSpace=wrap;rounded=0;fontSize=16;fontStyle=1" vertex="1" parent="1">
          <mxGeometry x="560" y="280" width="120" height="40" as="geometry" />
        </mxCell>
        <mxCell id="6i9DwoqVIKGJww_wzSM7-26" value="02/2023" style="text;html=1;strokeColor=none;fillColor=none;align=center;verticalAlign=middle;whiteSpace=wrap;rounded=0;fontSize=16;fontStyle=1" vertex="1" parent="1">
          <mxGeometry x="680" y="280" width="120" height="40" as="geometry" />
        </mxCell>
        <mxCell id="6i9DwoqVIKGJww_wzSM7-27" value="IOS" style="rounded=1;whiteSpace=wrap;html=1;fillColor=#fff2cc;strokeColor=#d6b656;" vertex="1" parent="1">
          <mxGeometry x="80" y="360" width="190" height="40" as="geometry" />
        </mxCell>
        <mxCell id="6i9DwoqVIKGJww_wzSM7-29" value="Лендинг" style="rounded=1;whiteSpace=wrap;html=1;fillColor=#dae8fc;strokeColor=#6c8ebf;" vertex="1" parent="1">
          <mxGeometry x="80" y="440" width="190" height="40" as="geometry" />
        </mxCell>
        <mxCell id="6i9DwoqVIKGJww_wzSM7-31" value="Интернет Магазин" style="rounded=1;whiteSpace=wrap;html=1;fillColor=#d5e8d4;strokeColor=#82b366;" vertex="1" parent="1">
          <mxGeometry x="290" y="360" width="510" height="120" as="geometry" />
        </mxCell>
        <mxCell id="6i9DwoqVIKGJww_wzSM7-33" value="" style="endArrow=none;html=1;strokeWidth=2;exitX=0;exitY=1;exitDx=0;exitDy=0;entryX=1;entryY=1;entryDx=0;entryDy=0;entryPerimeter=0;" edge="1" parent="1" source="6i9DwoqVIKGJww_wzSM7-40" target="6i9DwoqVIKGJww_wzSM7-46">
          <mxGeometry width="50" height="50" relative="1" as="geometry">
            <mxPoint y="660" as="sourcePoint" />
            <mxPoint x="820" y="660" as="targetPoint" />
          </mxGeometry>
        </mxCell>
        <mxCell id="6i9DwoqVIKGJww_wzSM7-34" value="" style="endArrow=none;html=1;strokeWidth=2;" edge="1" parent="1">
          <mxGeometry width="50" height="50" relative="1" as="geometry">
            <mxPoint x="80" y="620" as="sourcePoint" />
            <mxPoint x="80" y="920" as="targetPoint" />
          </mxGeometry>
        </mxCell>
        <mxCell id="6i9DwoqVIKGJww_wzSM7-35" value="" style="endArrow=none;html=1;strokeWidth=2;" edge="1" parent="1">
          <mxGeometry width="50" height="50" relative="1" as="geometry">
            <mxPoint x="200" y="620" as="sourcePoint" />
            <mxPoint x="200" y="920" as="targetPoint" />
          </mxGeometry>
        </mxCell>
        <mxCell id="6i9DwoqVIKGJww_wzSM7-36" value="" style="endArrow=none;html=1;strokeWidth=2;" edge="1" parent="1">
          <mxGeometry width="50" height="50" relative="1" as="geometry">
            <mxPoint x="320" y="620" as="sourcePoint" />
            <mxPoint x="320" y="920" as="targetPoint" />
          </mxGeometry>
        </mxCell>
        <mxCell id="6i9DwoqVIKGJww_wzSM7-37" value="" style="endArrow=none;html=1;strokeWidth=2;" edge="1" parent="1">
          <mxGeometry width="50" height="50" relative="1" as="geometry">
            <mxPoint x="440" y="620" as="sourcePoint" />
            <mxPoint x="440" y="920" as="targetPoint" />
          </mxGeometry>
        </mxCell>
        <mxCell id="6i9DwoqVIKGJww_wzSM7-38" value="" style="endArrow=none;html=1;strokeWidth=2;" edge="1" parent="1">
          <mxGeometry width="50" height="50" relative="1" as="geometry">
            <mxPoint x="560" y="620" as="sourcePoint" />
            <mxPoint x="560" y="920" as="targetPoint" />
          </mxGeometry>
        </mxCell>
        <mxCell id="6i9DwoqVIKGJww_wzSM7-39" value="" style="endArrow=none;html=1;strokeWidth=2;" edge="1" parent="1">
          <mxGeometry width="50" height="50" relative="1" as="geometry">
            <mxPoint x="679" y="620" as="sourcePoint" />
            <mxPoint x="679" y="920" as="targetPoint" />
          </mxGeometry>
        </mxCell>
        <mxCell id="6i9DwoqVIKGJww_wzSM7-40" value="Недели" style="text;html=1;strokeColor=none;fillColor=none;align=center;verticalAlign=middle;whiteSpace=wrap;rounded=0;fontSize=16;fontStyle=1" vertex="1" parent="1">
          <mxGeometry x="10" y="620" width="70" height="40" as="geometry" />
        </mxCell>
        <mxCell id="6i9DwoqVIKGJww_wzSM7-41" value="09/2021 1" style="text;html=1;strokeColor=none;fillColor=none;align=center;verticalAlign=middle;whiteSpace=wrap;rounded=0;fontSize=16;fontStyle=1" vertex="1" parent="1">
          <mxGeometry x="80" y="620" width="120" height="40" as="geometry" />
        </mxCell>
        <mxCell id="6i9DwoqVIKGJww_wzSM7-42" value="09/2021 3" style="text;html=1;strokeColor=none;fillColor=none;align=center;verticalAlign=middle;whiteSpace=wrap;rounded=0;fontSize=16;fontStyle=1" vertex="1" parent="1">
          <mxGeometry x="320" y="620" width="120" height="40" as="geometry" />
        </mxCell>
        <mxCell id="6i9DwoqVIKGJww_wzSM7-43" value="09/2021 4" style="text;html=1;strokeColor=none;fillColor=none;align=center;verticalAlign=middle;whiteSpace=wrap;rounded=0;fontSize=16;fontStyle=1" vertex="1" parent="1">
          <mxGeometry x="440" y="620" width="120" height="40" as="geometry" />
        </mxCell>
        <mxCell id="6i9DwoqVIKGJww_wzSM7-44" value="09/2021 2" style="text;html=1;strokeColor=none;fillColor=none;align=center;verticalAlign=middle;whiteSpace=wrap;rounded=0;fontSize=16;fontStyle=1" vertex="1" parent="1">
          <mxGeometry x="200" y="620" width="120" height="40" as="geometry" />
        </mxCell>
        <mxCell id="6i9DwoqVIKGJww_wzSM7-45" value="10/2021 1" style="text;html=1;strokeColor=none;fillColor=none;align=center;verticalAlign=middle;whiteSpace=wrap;rounded=0;fontSize=16;fontStyle=1" vertex="1" parent="1">
          <mxGeometry x="560" y="620" width="120" height="40" as="geometry" />
        </mxCell>
        <mxCell id="6i9DwoqVIKGJww_wzSM7-46" value="10/2021 2" style="text;html=1;strokeColor=none;fillColor=none;align=center;verticalAlign=middle;whiteSpace=wrap;rounded=0;fontSize=16;fontStyle=1" vertex="1" parent="1">
          <mxGeometry x="680" y="620" width="120" height="40" as="geometry" />
        </mxCell>
        <mxCell id="6i9DwoqVIKGJww_wzSM7-47" value="IOS" style="rounded=1;whiteSpace=wrap;html=1;fillColor=#fff2cc;strokeColor=#d6b656;" vertex="1" parent="1">
          <mxGeometry x="280" y="570" width="280" height="40" as="geometry" />
        </mxCell>
        <mxCell id="6i9DwoqVIKGJww_wzSM7-53" value="Вход" style="rounded=1;whiteSpace=wrap;html=1;fillColor=#fff2cc;strokeColor=#d6b656;" vertex="1" parent="1">
          <mxGeometry x="85" y="700" width="110" height="40" as="geometry" />
        </mxCell>
        <mxCell id="6i9DwoqVIKGJww_wzSM7-55" value="Регистрация" style="rounded=1;whiteSpace=wrap;html=1;fillColor=#fff2cc;strokeColor=#d6b656;" vertex="1" parent="1">
          <mxGeometry x="85" y="780" width="110" height="40" as="geometry" />
        </mxCell>
        <mxCell id="6i9DwoqVIKGJww_wzSM7-56" value="Каталог" style="rounded=1;whiteSpace=wrap;html=1;fillColor=#fff2cc;strokeColor=#d6b656;" vertex="1" parent="1">
          <mxGeometry x="205" y="700" width="110" height="120" as="geometry" />
        </mxCell>
        <mxCell id="6i9DwoqVIKGJww_wzSM7-57" value="Кабинет" style="rounded=1;whiteSpace=wrap;html=1;fillColor=#fff2cc;strokeColor=#d6b656;" vertex="1" parent="1">
          <mxGeometry x="325" y="700" width="110" height="120" as="geometry" />
        </mxCell>
        <mxCell id="6i9DwoqVIKGJww_wzSM7-58" value="Корзина" style="rounded=1;whiteSpace=wrap;html=1;fillColor=#fff2cc;strokeColor=#d6b656;" vertex="1" parent="1">
          <mxGeometry x="445" y="700" width="110" height="40" as="geometry" />
        </mxCell>
        <mxCell id="6i9DwoqVIKGJww_wzSM7-59" value="Контакты" style="rounded=1;whiteSpace=wrap;html=1;fillColor=#fff2cc;strokeColor=#d6b656;" vertex="1" parent="1">
          <mxGeometry x="445" y="780" width="110" height="40" as="geometry" />
        </mxCell>
        <mxCell id="6i9DwoqVIKGJww_wzSM7-60" value="Рассылка" style="rounded=1;whiteSpace=wrap;html=1;fillColor=#fff2cc;strokeColor=#d6b656;" vertex="1" parent="1">
          <mxGeometry x="565" y="690" width="110" height="40" as="geometry" />
        </mxCell>
        <mxCell id="6i9DwoqVIKGJww_wzSM7-61" value="Новости" style="rounded=1;whiteSpace=wrap;html=1;fillColor=#fff2cc;strokeColor=#d6b656;" vertex="1" parent="1">
          <mxGeometry x="565" y="790" width="110" height="40" as="geometry" />
        </mxCell>
        <mxCell id="6i9DwoqVIKGJww_wzSM7-62" value="Скидки" style="rounded=1;whiteSpace=wrap;html=1;fillColor=#fff2cc;strokeColor=#d6b656;" vertex="1" parent="1">
          <mxGeometry x="565" y="740" width="110" height="40" as="geometry" />
        </mxCell>
        <mxCell id="6i9DwoqVIKGJww_wzSM7-63" value="Рефералы" style="rounded=1;whiteSpace=wrap;html=1;fillColor=#fff2cc;strokeColor=#d6b656;" vertex="1" parent="1">
          <mxGeometry x="565" y="840" width="110" height="40" as="geometry" />
        </mxCell>
        <mxCell id="6i9DwoqVIKGJww_wzSM7-64" value="Тесты" style="rounded=1;whiteSpace=wrap;html=1;fillColor=#fff2cc;strokeColor=#d6b656;" vertex="1" parent="1">
          <mxGeometry x="690" y="680" width="110" height="200" as="geometry" />
        </mxCell>
        <mxCell id="6i9DwoqVIKGJww_wzSM7-65" value="" style="endArrow=none;html=1;strokeWidth=2;exitX=0;exitY=1;exitDx=0;exitDy=0;entryX=1;entryY=1;entryDx=0;entryDy=0;" edge="1" parent="1" source="6i9DwoqVIKGJww_wzSM7-72" target="6i9DwoqVIKGJww_wzSM7-78">
          <mxGeometry width="50" height="50" relative="1" as="geometry">
            <mxPoint x="-1" y="1040" as="sourcePoint" />
            <mxPoint x="819" y="1040" as="targetPoint" />
          </mxGeometry>
        </mxCell>
        <mxCell id="6i9DwoqVIKGJww_wzSM7-66" value="" style="endArrow=none;html=1;strokeWidth=2;" edge="1" parent="1">
          <mxGeometry width="50" height="50" relative="1" as="geometry">
            <mxPoint x="79" y="1000" as="sourcePoint" />
            <mxPoint x="79" y="1200" as="targetPoint" />
          </mxGeometry>
        </mxCell>
        <mxCell id="6i9DwoqVIKGJww_wzSM7-67" value="" style="endArrow=none;html=1;strokeWidth=2;" edge="1" parent="1">
          <mxGeometry width="50" height="50" relative="1" as="geometry">
            <mxPoint x="199" y="1000" as="sourcePoint" />
            <mxPoint x="199" y="1200" as="targetPoint" />
          </mxGeometry>
        </mxCell>
        <mxCell id="6i9DwoqVIKGJww_wzSM7-68" value="" style="endArrow=none;html=1;strokeWidth=2;" edge="1" parent="1">
          <mxGeometry width="50" height="50" relative="1" as="geometry">
            <mxPoint x="319" y="1000" as="sourcePoint" />
            <mxPoint x="319" y="1200" as="targetPoint" />
          </mxGeometry>
        </mxCell>
        <mxCell id="6i9DwoqVIKGJww_wzSM7-69" value="" style="endArrow=none;html=1;strokeWidth=2;" edge="1" parent="1">
          <mxGeometry width="50" height="50" relative="1" as="geometry">
            <mxPoint x="439" y="1000" as="sourcePoint" />
            <mxPoint x="439" y="1200" as="targetPoint" />
          </mxGeometry>
        </mxCell>
        <mxCell id="6i9DwoqVIKGJww_wzSM7-70" value="" style="endArrow=none;html=1;strokeWidth=2;" edge="1" parent="1">
          <mxGeometry width="50" height="50" relative="1" as="geometry">
            <mxPoint x="559" y="1000" as="sourcePoint" />
            <mxPoint x="559" y="1200" as="targetPoint" />
          </mxGeometry>
        </mxCell>
        <mxCell id="6i9DwoqVIKGJww_wzSM7-71" value="" style="endArrow=none;html=1;strokeWidth=2;" edge="1" parent="1">
          <mxGeometry width="50" height="50" relative="1" as="geometry">
            <mxPoint x="678" y="1000" as="sourcePoint" />
            <mxPoint x="678" y="1200" as="targetPoint" />
          </mxGeometry>
        </mxCell>
        <mxCell id="6i9DwoqVIKGJww_wzSM7-72" value="Недели" style="text;html=1;strokeColor=none;fillColor=none;align=center;verticalAlign=middle;whiteSpace=wrap;rounded=0;fontSize=16;fontStyle=1" vertex="1" parent="1">
          <mxGeometry x="9" y="1000" width="70" height="40" as="geometry" />
        </mxCell>
        <mxCell id="6i9DwoqVIKGJww_wzSM7-73" value="09/2021 1" style="text;html=1;strokeColor=none;fillColor=none;align=center;verticalAlign=middle;whiteSpace=wrap;rounded=0;fontSize=16;fontStyle=1" vertex="1" parent="1">
          <mxGeometry x="79" y="1000" width="120" height="40" as="geometry" />
        </mxCell>
        <mxCell id="6i9DwoqVIKGJww_wzSM7-74" value="09/2021 3" style="text;html=1;strokeColor=none;fillColor=none;align=center;verticalAlign=middle;whiteSpace=wrap;rounded=0;fontSize=16;fontStyle=1" vertex="1" parent="1">
          <mxGeometry x="319" y="1000" width="120" height="40" as="geometry" />
        </mxCell>
        <mxCell id="6i9DwoqVIKGJww_wzSM7-75" value="09/2021 4" style="text;html=1;strokeColor=none;fillColor=none;align=center;verticalAlign=middle;whiteSpace=wrap;rounded=0;fontSize=16;fontStyle=1" vertex="1" parent="1">
          <mxGeometry x="439" y="1000" width="120" height="40" as="geometry" />
        </mxCell>
        <mxCell id="6i9DwoqVIKGJww_wzSM7-76" value="09/2021 2" style="text;html=1;strokeColor=none;fillColor=none;align=center;verticalAlign=middle;whiteSpace=wrap;rounded=0;fontSize=16;fontStyle=1" vertex="1" parent="1">
          <mxGeometry x="199" y="1000" width="120" height="40" as="geometry" />
        </mxCell>
        <mxCell id="6i9DwoqVIKGJww_wzSM7-77" value="10/2021 1" style="text;html=1;strokeColor=none;fillColor=none;align=center;verticalAlign=middle;whiteSpace=wrap;rounded=0;fontSize=16;fontStyle=1" vertex="1" parent="1">
          <mxGeometry x="559" y="1000" width="120" height="40" as="geometry" />
        </mxCell>
        <mxCell id="6i9DwoqVIKGJww_wzSM7-78" value="10/2021 2" style="text;html=1;strokeColor=none;fillColor=none;align=center;verticalAlign=middle;whiteSpace=wrap;rounded=0;fontSize=16;fontStyle=1" vertex="1" parent="1">
          <mxGeometry x="679" y="1000" width="120" height="40" as="geometry" />
        </mxCell>
        <mxCell id="6i9DwoqVIKGJww_wzSM7-91" value="Лендинг" style="rounded=1;whiteSpace=wrap;html=1;fillColor=#dae8fc;strokeColor=#6c8ebf;" vertex="1" parent="1">
          <mxGeometry x="280" y="950" width="280" height="40" as="geometry" />
        </mxCell>
        <mxCell id="6i9DwoqVIKGJww_wzSM7-93" value="Прототип" style="rounded=1;whiteSpace=wrap;html=1;fillColor=#dae8fc;strokeColor=#6c8ebf;" vertex="1" parent="1">
          <mxGeometry x="85" y="1080" width="105" height="40" as="geometry" />
        </mxCell>
        <mxCell id="6i9DwoqVIKGJww_wzSM7-94" value="Макет" style="rounded=1;whiteSpace=wrap;html=1;fillColor=#dae8fc;strokeColor=#6c8ebf;" vertex="1" parent="1">
          <mxGeometry x="86.5" y="1140" width="105" height="40" as="geometry" />
        </mxCell>
        <mxCell id="6i9DwoqVIKGJww_wzSM7-95" value="Дизайн" style="rounded=1;whiteSpace=wrap;html=1;fillColor=#dae8fc;strokeColor=#6c8ebf;" vertex="1" parent="1">
          <mxGeometry x="206.5" y="1080" width="105" height="40" as="geometry" />
        </mxCell>
        <mxCell id="6i9DwoqVIKGJww_wzSM7-96" value="Текста" style="rounded=1;whiteSpace=wrap;html=1;fillColor=#dae8fc;strokeColor=#6c8ebf;" vertex="1" parent="1">
          <mxGeometry x="205" y="1140" width="105" height="40" as="geometry" />
        </mxCell>
        <mxCell id="6i9DwoqVIKGJww_wzSM7-97" value="Разработка" style="rounded=1;whiteSpace=wrap;html=1;fillColor=#dae8fc;strokeColor=#6c8ebf;" vertex="1" parent="1">
          <mxGeometry x="327.5" y="1080" width="312.5" height="100" as="geometry" />
        </mxCell>
        <mxCell id="6i9DwoqVIKGJww_wzSM7-98" value="Тесты" style="rounded=1;whiteSpace=wrap;html=1;fillColor=#dae8fc;strokeColor=#6c8ebf;" vertex="1" parent="1">
          <mxGeometry x="690" y="1080" width="110" height="100" as="geometry" />
        </mxCell>
        <mxCell id="6i9DwoqVIKGJww_wzSM7-99" value="" style="endArrow=none;html=1;strokeWidth=2;exitX=0;exitY=1;exitDx=0;exitDy=0;" edge="1" parent="1" source="6i9DwoqVIKGJww_wzSM7-106">
          <mxGeometry width="50" height="50" relative="1" as="geometry">
            <mxPoint x="-1" y="1310" as="sourcePoint" />
            <mxPoint x="800" y="1310" as="targetPoint" />
          </mxGeometry>
        </mxCell>
        <mxCell id="6i9DwoqVIKGJww_wzSM7-100" value="" style="endArrow=none;html=1;strokeWidth=2;" edge="1" parent="1">
          <mxGeometry width="50" height="50" relative="1" as="geometry">
            <mxPoint x="79" y="1270" as="sourcePoint" />
            <mxPoint x="79" y="1560" as="targetPoint" />
          </mxGeometry>
        </mxCell>
        <mxCell id="6i9DwoqVIKGJww_wzSM7-101" value="" style="endArrow=none;html=1;strokeWidth=2;" edge="1" parent="1">
          <mxGeometry width="50" height="50" relative="1" as="geometry">
            <mxPoint x="199" y="1270" as="sourcePoint" />
            <mxPoint x="199" y="1560" as="targetPoint" />
          </mxGeometry>
        </mxCell>
        <mxCell id="6i9DwoqVIKGJww_wzSM7-102" value="" style="endArrow=none;html=1;strokeWidth=2;" edge="1" parent="1">
          <mxGeometry width="50" height="50" relative="1" as="geometry">
            <mxPoint x="319" y="1270" as="sourcePoint" />
            <mxPoint x="319" y="1560" as="targetPoint" />
          </mxGeometry>
        </mxCell>
        <mxCell id="6i9DwoqVIKGJww_wzSM7-103" value="" style="endArrow=none;html=1;strokeWidth=2;" edge="1" parent="1">
          <mxGeometry width="50" height="50" relative="1" as="geometry">
            <mxPoint x="439" y="1270" as="sourcePoint" />
            <mxPoint x="439" y="1560" as="targetPoint" />
          </mxGeometry>
        </mxCell>
        <mxCell id="6i9DwoqVIKGJww_wzSM7-104" value="" style="endArrow=none;html=1;strokeWidth=2;" edge="1" parent="1">
          <mxGeometry width="50" height="50" relative="1" as="geometry">
            <mxPoint x="559" y="1270" as="sourcePoint" />
            <mxPoint x="559" y="1560" as="targetPoint" />
          </mxGeometry>
        </mxCell>
        <mxCell id="6i9DwoqVIKGJww_wzSM7-106" value="Недели" style="text;html=1;strokeColor=none;fillColor=none;align=center;verticalAlign=middle;whiteSpace=wrap;rounded=0;fontSize=16;fontStyle=1" vertex="1" parent="1">
          <mxGeometry x="9" y="1270" width="70" height="40" as="geometry" />
        </mxCell>
        <mxCell id="6i9DwoqVIKGJww_wzSM7-107" value="11/2021 1-3" style="text;html=1;strokeColor=none;fillColor=none;align=center;verticalAlign=middle;whiteSpace=wrap;rounded=0;fontSize=16;fontStyle=1" vertex="1" parent="1">
          <mxGeometry x="79" y="1270" width="120" height="40" as="geometry" />
        </mxCell>
        <mxCell id="6i9DwoqVIKGJww_wzSM7-108" value="12-01/2021 4-3" style="text;html=1;strokeColor=none;fillColor=none;align=center;verticalAlign=middle;whiteSpace=wrap;rounded=0;fontSize=16;fontStyle=1" vertex="1" parent="1">
          <mxGeometry x="319" y="1270" width="120" height="40" as="geometry" />
        </mxCell>
        <mxCell id="6i9DwoqVIKGJww_wzSM7-109" value="12-01/2021 1-3" style="text;html=1;strokeColor=none;fillColor=none;align=center;verticalAlign=middle;whiteSpace=wrap;rounded=0;fontSize=16;fontStyle=1" vertex="1" parent="1">
          <mxGeometry x="439" y="1270" width="120" height="40" as="geometry" />
        </mxCell>
        <mxCell id="6i9DwoqVIKGJww_wzSM7-110" value="11-12/2021 4-3" style="text;html=1;strokeColor=none;fillColor=none;align=center;verticalAlign=middle;whiteSpace=wrap;rounded=0;fontSize=16;fontStyle=1" vertex="1" parent="1">
          <mxGeometry x="199" y="1270" width="120" height="40" as="geometry" />
        </mxCell>
        <mxCell id="6i9DwoqVIKGJww_wzSM7-111" value="01-02/2021 4-4" style="text;html=1;strokeColor=none;fillColor=none;align=center;verticalAlign=middle;whiteSpace=wrap;rounded=0;fontSize=16;fontStyle=1" vertex="1" parent="1">
          <mxGeometry x="559" y="1280" width="261" height="30" as="geometry" />
        </mxCell>
        <mxCell id="6i9DwoqVIKGJww_wzSM7-120" value="Интернет Магазин" style="rounded=1;whiteSpace=wrap;html=1;fillColor=#d5e8d4;strokeColor=#82b366;" vertex="1" parent="1">
          <mxGeometry x="281" y="1220" width="279" height="40" as="geometry" />
        </mxCell>
        <mxCell id="6i9DwoqVIKGJww_wzSM7-123" value="Вход" style="rounded=1;whiteSpace=wrap;html=1;fillColor=#d5e8d4;strokeColor=#82b366;" vertex="1" parent="1">
          <mxGeometry x="84" y="1340" width="110" height="40" as="geometry" />
        </mxCell>
        <mxCell id="6i9DwoqVIKGJww_wzSM7-124" value="Регистрация" style="rounded=1;whiteSpace=wrap;html=1;fillColor=#d5e8d4;strokeColor=#82b366;" vertex="1" parent="1">
          <mxGeometry x="84" y="1420" width="110" height="40" as="geometry" />
        </mxCell>
        <mxCell id="6i9DwoqVIKGJww_wzSM7-125" value="Каталог" style="rounded=1;whiteSpace=wrap;html=1;fillColor=#d5e8d4;strokeColor=#82b366;" vertex="1" parent="1">
          <mxGeometry x="204" y="1340" width="110" height="120" as="geometry" />
        </mxCell>
        <mxCell id="6i9DwoqVIKGJww_wzSM7-126" value="Кабинет" style="rounded=1;whiteSpace=wrap;html=1;fillColor=#d5e8d4;strokeColor=#82b366;" vertex="1" parent="1">
          <mxGeometry x="324" y="1340" width="110" height="120" as="geometry" />
        </mxCell>
        <mxCell id="6i9DwoqVIKGJww_wzSM7-127" value="Корзина" style="rounded=1;whiteSpace=wrap;html=1;fillColor=#d5e8d4;strokeColor=#82b366;" vertex="1" parent="1">
          <mxGeometry x="444" y="1340" width="110" height="40" as="geometry" />
        </mxCell>
        <mxCell id="6i9DwoqVIKGJww_wzSM7-128" value="Контакты" style="rounded=1;whiteSpace=wrap;html=1;fillColor=#d5e8d4;strokeColor=#82b366;" vertex="1" parent="1">
          <mxGeometry x="444" y="1420" width="110" height="40" as="geometry" />
        </mxCell>
        <mxCell id="6i9DwoqVIKGJww_wzSM7-129" value="Рассылка" style="rounded=1;whiteSpace=wrap;html=1;fillColor=#d5e8d4;strokeColor=#82b366;" vertex="1" parent="1">
          <mxGeometry x="564" y="1330" width="110" height="40" as="geometry" />
        </mxCell>
        <mxCell id="6i9DwoqVIKGJww_wzSM7-130" value="Новости" style="rounded=1;whiteSpace=wrap;html=1;fillColor=#d5e8d4;strokeColor=#82b366;" vertex="1" parent="1">
          <mxGeometry x="564" y="1430" width="110" height="40" as="geometry" />
        </mxCell>
        <mxCell id="6i9DwoqVIKGJww_wzSM7-131" value="Скидки" style="rounded=1;whiteSpace=wrap;html=1;fillColor=#d5e8d4;strokeColor=#82b366;" vertex="1" parent="1">
          <mxGeometry x="564" y="1380" width="110" height="40" as="geometry" />
        </mxCell>
        <mxCell id="6i9DwoqVIKGJww_wzSM7-132" value="Рефералы" style="rounded=1;whiteSpace=wrap;html=1;fillColor=#d5e8d4;strokeColor=#82b366;" vertex="1" parent="1">
          <mxGeometry x="564" y="1480" width="110" height="40" as="geometry" />
        </mxCell>
        <mxCell id="6i9DwoqVIKGJww_wzSM7-133" value="Тесты" style="rounded=1;whiteSpace=wrap;html=1;fillColor=#d5e8d4;strokeColor=#82b366;" vertex="1" parent="1">
          <mxGeometry x="689" y="1320" width="110" height="200" as="geometry" />
        </mxCell>
      </root>
    </mxGraphModel>
  </diagram>
</mxfile>
